<mxfile host="app.diagrams.net" agent="Mozilla/5.0 (Windows NT 10.0; Win64; x64) AppleWebKit/537.36 (KHTML, like Gecko) Chrome/131.0.0.0 Safari/537.36" version="26.0.11">
  <diagram name="Page-1" id="J0uXixkzDRPkkf9AO-P7">
    <mxGraphModel dx="1034" dy="446" grid="1" gridSize="10" guides="1" tooltips="1" connect="1" arrows="1" fold="1" page="1" pageScale="1" pageWidth="850" pageHeight="1100" math="0" shadow="0">
      <root>
        <mxCell id="0" />
        <mxCell id="1" parent="0" />
        <mxCell id="CFqAQDUVSycDejMYVYhO-1" value="topMod.v" style="rounded=0;whiteSpace=wrap;html=1;" vertex="1" parent="1">
          <mxGeometry x="320" y="80" width="120" height="60" as="geometry" />
        </mxCell>
        <mxCell id="CFqAQDUVSycDejMYVYhO-2" value="" style="endArrow=classic;html=1;rounded=0;" edge="1" parent="1">
          <mxGeometry width="50" height="50" relative="1" as="geometry">
            <mxPoint x="400" y="140" as="sourcePoint" />
            <mxPoint x="450" y="210" as="targetPoint" />
          </mxGeometry>
        </mxCell>
        <mxCell id="CFqAQDUVSycDejMYVYhO-3" value="" style="endArrow=classic;html=1;rounded=0;exitX=0.444;exitY=0.989;exitDx=0;exitDy=0;exitPerimeter=0;" edge="1" parent="1" source="CFqAQDUVSycDejMYVYhO-1">
          <mxGeometry width="50" height="50" relative="1" as="geometry">
            <mxPoint x="407" y="153" as="sourcePoint" />
            <mxPoint x="330" y="210" as="targetPoint" />
          </mxGeometry>
        </mxCell>
        <mxCell id="CFqAQDUVSycDejMYVYhO-4" value="rgb.v&amp;nbsp;&lt;div&gt;(rgb controller)&lt;/div&gt;" style="rounded=0;whiteSpace=wrap;html=1;" vertex="1" parent="1">
          <mxGeometry x="230" y="210" width="120" height="60" as="geometry" />
        </mxCell>
        <mxCell id="CFqAQDUVSycDejMYVYhO-5" value="ssd.v&amp;nbsp;&lt;div&gt;(Seven Segment Display controller)&lt;/div&gt;" style="rounded=0;whiteSpace=wrap;html=1;" vertex="1" parent="1">
          <mxGeometry x="430" y="210" width="120" height="60" as="geometry" />
        </mxCell>
        <mxCell id="CFqAQDUVSycDejMYVYhO-7" value="" style="endArrow=classic;html=1;rounded=0;exitX=0.75;exitY=1;exitDx=0;exitDy=0;" edge="1" parent="1">
          <mxGeometry width="50" height="50" relative="1" as="geometry">
            <mxPoint x="260" y="270" as="sourcePoint" />
            <mxPoint x="230" y="320" as="targetPoint" />
          </mxGeometry>
        </mxCell>
        <mxCell id="CFqAQDUVSycDejMYVYhO-8" value="pwm.v&lt;div&gt;(pwm controller)&lt;/div&gt;" style="rounded=0;whiteSpace=wrap;html=1;" vertex="1" parent="1">
          <mxGeometry x="130" y="320" width="120" height="60" as="geometry" />
        </mxCell>
        <mxCell id="CFqAQDUVSycDejMYVYhO-16" value="led.v&lt;div&gt;(RGB Controller)&lt;/div&gt;" style="rounded=0;whiteSpace=wrap;html=1;direction=south;" vertex="1" parent="1">
          <mxGeometry x="511" y="290" width="100" height="120" as="geometry" />
        </mxCell>
        <mxCell id="CFqAQDUVSycDejMYVYhO-17" value="" style="endArrow=classic;html=1;rounded=0;" edge="1" parent="1">
          <mxGeometry width="50" height="50" relative="1" as="geometry">
            <mxPoint x="451" y="326" as="sourcePoint" />
            <mxPoint x="511" y="326" as="targetPoint" />
          </mxGeometry>
        </mxCell>
        <mxCell id="CFqAQDUVSycDejMYVYhO-18" value="" style="endArrow=classic;html=1;rounded=0;" edge="1" parent="1">
          <mxGeometry width="50" height="50" relative="1" as="geometry">
            <mxPoint x="451" y="356" as="sourcePoint" />
            <mxPoint x="511" y="356" as="targetPoint" />
          </mxGeometry>
        </mxCell>
        <mxCell id="CFqAQDUVSycDejMYVYhO-19" value="" style="endArrow=classic;html=1;rounded=0;" edge="1" parent="1">
          <mxGeometry width="50" height="50" relative="1" as="geometry">
            <mxPoint x="451" y="400" as="sourcePoint" />
            <mxPoint x="511" y="400" as="targetPoint" />
          </mxGeometry>
        </mxCell>
        <mxCell id="CFqAQDUVSycDejMYVYhO-20" value="PMOD Switches [15:0]" style="text;html=1;align=center;verticalAlign=middle;resizable=0;points=[];autosize=1;strokeColor=none;fillColor=none;" vertex="1" parent="1">
          <mxGeometry x="321" y="310" width="140" height="30" as="geometry" />
        </mxCell>
        <mxCell id="CFqAQDUVSycDejMYVYhO-21" value="clock&amp;nbsp;" style="text;html=1;align=center;verticalAlign=middle;resizable=0;points=[];autosize=1;strokeColor=none;fillColor=none;" vertex="1" parent="1">
          <mxGeometry x="411" y="341" width="50" height="30" as="geometry" />
        </mxCell>
        <mxCell id="CFqAQDUVSycDejMYVYhO-25" value="Reset&amp;nbsp;" style="text;html=1;align=center;verticalAlign=middle;resizable=0;points=[];autosize=1;strokeColor=none;fillColor=none;" vertex="1" parent="1">
          <mxGeometry x="404" y="384" width="60" height="30" as="geometry" />
        </mxCell>
        <mxCell id="CFqAQDUVSycDejMYVYhO-26" value="" style="endArrow=classic;html=1;rounded=0;" edge="1" parent="1">
          <mxGeometry width="50" height="50" relative="1" as="geometry">
            <mxPoint x="611" y="324.5" as="sourcePoint" />
            <mxPoint x="691" y="324.5" as="targetPoint" />
          </mxGeometry>
        </mxCell>
        <mxCell id="CFqAQDUVSycDejMYVYhO-27" value="" style="endArrow=classic;html=1;rounded=0;" edge="1" parent="1">
          <mxGeometry width="50" height="50" relative="1" as="geometry">
            <mxPoint x="611" y="347.5" as="sourcePoint" />
            <mxPoint x="691" y="347.5" as="targetPoint" />
          </mxGeometry>
        </mxCell>
        <mxCell id="CFqAQDUVSycDejMYVYhO-28" value="" style="endArrow=classic;html=1;rounded=0;" edge="1" parent="1">
          <mxGeometry width="50" height="50" relative="1" as="geometry">
            <mxPoint x="612" y="372.5" as="sourcePoint" />
            <mxPoint x="692" y="372.5" as="targetPoint" />
          </mxGeometry>
        </mxCell>
        <mxCell id="CFqAQDUVSycDejMYVYhO-29" value="&lt;div style=&quot;text-align: center;&quot;&gt;&lt;span style=&quot;background-color: transparent; color: light-dark(rgb(0, 0, 0), rgb(255, 255, 255)); text-wrap-mode: nowrap;&quot;&gt;Red LED&amp;nbsp;&lt;/span&gt;&lt;span style=&quot;text-wrap-mode: nowrap; background-color: transparent; color: light-dark(rgb(0, 0, 0), rgb(255, 255, 255));&quot;&gt;OUT&lt;/span&gt;&lt;/div&gt;" style="text;whiteSpace=wrap;html=1;" vertex="1" parent="1">
          <mxGeometry x="694" y="312" width="147" height="28" as="geometry" />
        </mxCell>
        <mxCell id="CFqAQDUVSycDejMYVYhO-30" value="&lt;span style=&quot;color: rgb(0, 0, 0); font-family: Helvetica; font-size: 12px; font-style: normal; font-variant-ligatures: normal; font-variant-caps: normal; font-weight: 400; letter-spacing: normal; orphans: 2; text-align: center; text-indent: 0px; text-transform: none; widows: 2; word-spacing: 0px; -webkit-text-stroke-width: 0px; white-space: nowrap; background-color: rgb(251, 251, 251); text-decoration-thickness: initial; text-decoration-style: initial; text-decoration-color: initial; float: none; display: inline !important;&quot;&gt;Blue LED OUT&lt;/span&gt;" style="text;whiteSpace=wrap;html=1;" vertex="1" parent="1">
          <mxGeometry x="694" y="335" width="80" height="40" as="geometry" />
        </mxCell>
        <mxCell id="CFqAQDUVSycDejMYVYhO-31" value="&lt;span style=&quot;color: rgb(0, 0, 0); font-family: Helvetica; font-size: 12px; font-style: normal; font-variant-ligatures: normal; font-variant-caps: normal; font-weight: 400; letter-spacing: normal; orphans: 2; text-align: center; text-indent: 0px; text-transform: none; widows: 2; word-spacing: 0px; -webkit-text-stroke-width: 0px; white-space: nowrap; background-color: rgb(251, 251, 251); text-decoration-thickness: initial; text-decoration-style: initial; text-decoration-color: initial; float: none; display: inline !important;&quot;&gt;Green LED OUT&lt;/span&gt;" style="text;whiteSpace=wrap;html=1;" vertex="1" parent="1">
          <mxGeometry x="694" y="360" width="110" height="40" as="geometry" />
        </mxCell>
        <mxCell id="CFqAQDUVSycDejMYVYhO-32" value="ssd.v&lt;div&gt;(Seven Seg Dis Controller)&lt;/div&gt;" style="rounded=0;whiteSpace=wrap;html=1;direction=south;" vertex="1" parent="1">
          <mxGeometry x="511" y="480" width="100" height="120" as="geometry" />
        </mxCell>
        <mxCell id="CFqAQDUVSycDejMYVYhO-33" value="" style="endArrow=classic;html=1;rounded=0;" edge="1" parent="1">
          <mxGeometry width="50" height="50" relative="1" as="geometry">
            <mxPoint x="451" y="516" as="sourcePoint" />
            <mxPoint x="511" y="516" as="targetPoint" />
          </mxGeometry>
        </mxCell>
        <mxCell id="CFqAQDUVSycDejMYVYhO-34" value="" style="endArrow=classic;html=1;rounded=0;" edge="1" parent="1">
          <mxGeometry width="50" height="50" relative="1" as="geometry">
            <mxPoint x="451" y="546" as="sourcePoint" />
            <mxPoint x="511" y="546" as="targetPoint" />
          </mxGeometry>
        </mxCell>
        <mxCell id="CFqAQDUVSycDejMYVYhO-35" value="" style="endArrow=classic;html=1;rounded=0;" edge="1" parent="1">
          <mxGeometry width="50" height="50" relative="1" as="geometry">
            <mxPoint x="451" y="590" as="sourcePoint" />
            <mxPoint x="511" y="590" as="targetPoint" />
          </mxGeometry>
        </mxCell>
        <mxCell id="CFqAQDUVSycDejMYVYhO-36" value="Encoded Bitstream[31:0]" style="text;html=1;align=center;verticalAlign=middle;resizable=0;points=[];autosize=1;strokeColor=none;fillColor=none;" vertex="1" parent="1">
          <mxGeometry x="310" y="500" width="150" height="30" as="geometry" />
        </mxCell>
        <mxCell id="CFqAQDUVSycDejMYVYhO-37" value="clock&amp;nbsp;" style="text;html=1;align=center;verticalAlign=middle;resizable=0;points=[];autosize=1;strokeColor=none;fillColor=none;" vertex="1" parent="1">
          <mxGeometry x="411" y="531" width="50" height="30" as="geometry" />
        </mxCell>
        <mxCell id="CFqAQDUVSycDejMYVYhO-38" value="Reset&amp;nbsp;" style="text;html=1;align=center;verticalAlign=middle;resizable=0;points=[];autosize=1;strokeColor=none;fillColor=none;" vertex="1" parent="1">
          <mxGeometry x="404" y="574" width="60" height="30" as="geometry" />
        </mxCell>
        <mxCell id="CFqAQDUVSycDejMYVYhO-40" value="" style="endArrow=classic;html=1;rounded=0;" edge="1" parent="1">
          <mxGeometry width="50" height="50" relative="1" as="geometry">
            <mxPoint x="611" y="537.5" as="sourcePoint" />
            <mxPoint x="691" y="537.5" as="targetPoint" />
          </mxGeometry>
        </mxCell>
        <mxCell id="CFqAQDUVSycDejMYVYhO-41" value="" style="endArrow=classic;html=1;rounded=0;" edge="1" parent="1">
          <mxGeometry width="50" height="50" relative="1" as="geometry">
            <mxPoint x="612" y="562.5" as="sourcePoint" />
            <mxPoint x="692" y="562.5" as="targetPoint" />
          </mxGeometry>
        </mxCell>
        <mxCell id="CFqAQDUVSycDejMYVYhO-43" value="&lt;div style=&quot;text-align: center;&quot;&gt;&lt;span style=&quot;background-color: transparent; color: light-dark(rgb(0, 0, 0), rgb(255, 255, 255)); text-wrap-mode: nowrap;&quot;&gt;Common Cathode []&lt;/span&gt;&lt;/div&gt;" style="text;whiteSpace=wrap;html=1;" vertex="1" parent="1">
          <mxGeometry x="694" y="525" width="80" height="40" as="geometry" />
        </mxCell>
        <mxCell id="CFqAQDUVSycDejMYVYhO-44" value="&lt;div style=&quot;text-align: center;&quot;&gt;&lt;span style=&quot;text-wrap-mode: nowrap;&quot;&gt;Common Anode [7:0]&lt;/span&gt;&lt;/div&gt;" style="text;whiteSpace=wrap;html=1;" vertex="1" parent="1">
          <mxGeometry x="694" y="550" width="110" height="40" as="geometry" />
        </mxCell>
        <mxCell id="CFqAQDUVSycDejMYVYhO-45" value="sIdle" style="ellipse;whiteSpace=wrap;html=1;aspect=fixed;" vertex="1" parent="1">
          <mxGeometry x="90" y="730" width="130" height="130" as="geometry" />
        </mxCell>
        <mxCell id="CFqAQDUVSycDejMYVYhO-46" value="" style="endArrow=classic;html=1;rounded=0;" edge="1" parent="1">
          <mxGeometry width="50" height="50" relative="1" as="geometry">
            <mxPoint x="220" y="790" as="sourcePoint" />
            <mxPoint x="330" y="790" as="targetPoint" />
          </mxGeometry>
        </mxCell>
        <mxCell id="CFqAQDUVSycDejMYVYhO-47" value="" style="curved=1;endArrow=classic;html=1;rounded=0;" edge="1" parent="1" source="CFqAQDUVSycDejMYVYhO-45" target="CFqAQDUVSycDejMYVYhO-45">
          <mxGeometry width="50" height="50" relative="1" as="geometry">
            <mxPoint x="130" y="730" as="sourcePoint" />
            <mxPoint x="180" y="680" as="targetPoint" />
            <Array as="points">
              <mxPoint x="180" y="730" />
              <mxPoint x="130" y="680" />
            </Array>
          </mxGeometry>
        </mxCell>
        <mxCell id="CFqAQDUVSycDejMYVYhO-48" value="rst == 1" style="text;html=1;align=center;verticalAlign=middle;resizable=0;points=[];autosize=1;strokeColor=none;fillColor=none;" vertex="1" parent="1">
          <mxGeometry x="110" y="668" width="60" height="30" as="geometry" />
        </mxCell>
        <mxCell id="CFqAQDUVSycDejMYVYhO-52" value="rst == 0" style="text;html=1;align=center;verticalAlign=middle;resizable=0;points=[];autosize=1;strokeColor=none;fillColor=none;" vertex="1" parent="1">
          <mxGeometry x="230" y="760" width="60" height="30" as="geometry" />
        </mxCell>
        <mxCell id="CFqAQDUVSycDejMYVYhO-53" value="sOn" style="ellipse;whiteSpace=wrap;html=1;aspect=fixed;" vertex="1" parent="1">
          <mxGeometry x="334" y="730" width="130" height="130" as="geometry" />
        </mxCell>
        <mxCell id="CFqAQDUVSycDejMYVYhO-54" value="" style="endArrow=classic;html=1;rounded=0;exitX=0.008;exitY=0.6;exitDx=0;exitDy=0;exitPerimeter=0;entryX=1.023;entryY=0.582;entryDx=0;entryDy=0;entryPerimeter=0;" edge="1" parent="1" source="CFqAQDUVSycDejMYVYhO-53" target="CFqAQDUVSycDejMYVYhO-45">
          <mxGeometry width="50" height="50" relative="1" as="geometry">
            <mxPoint x="250" y="900" as="sourcePoint" />
            <mxPoint x="300" y="850" as="targetPoint" />
          </mxGeometry>
        </mxCell>
        <mxCell id="CFqAQDUVSycDejMYVYhO-55" value="&lt;span style=&quot;color: rgb(0, 0, 0); font-family: Helvetica; font-size: 12px; font-style: normal; font-variant-ligatures: normal; font-variant-caps: normal; font-weight: 400; letter-spacing: normal; orphans: 2; text-align: center; text-indent: 0px; text-transform: none; widows: 2; word-spacing: 0px; -webkit-text-stroke-width: 0px; white-space: nowrap; background-color: rgb(251, 251, 251); text-decoration-thickness: initial; text-decoration-style: initial; text-decoration-color: initial; display: inline !important; float: none;&quot;&gt;rst == 1&lt;/span&gt;" style="text;whiteSpace=wrap;html=1;" vertex="1" parent="1">
          <mxGeometry x="251" y="810" width="70" height="40" as="geometry" />
        </mxCell>
        <mxCell id="CFqAQDUVSycDejMYVYhO-56" value="" style="curved=1;endArrow=classic;html=1;rounded=0;" edge="1" parent="1">
          <mxGeometry width="50" height="50" relative="1" as="geometry">
            <mxPoint x="438" y="734" as="sourcePoint" />
            <mxPoint x="401" y="731" as="targetPoint" />
            <Array as="points">
              <mxPoint x="430" y="750" />
              <mxPoint x="390" y="680" />
            </Array>
          </mxGeometry>
        </mxCell>
        <mxCell id="CFqAQDUVSycDejMYVYhO-57" value="rst == 0" style="text;html=1;align=center;verticalAlign=middle;resizable=0;points=[];autosize=1;strokeColor=none;fillColor=none;" vertex="1" parent="1">
          <mxGeometry x="370" y="668" width="60" height="30" as="geometry" />
        </mxCell>
      </root>
    </mxGraphModel>
  </diagram>
</mxfile>
